<svg xmlns="http://www.w3.org/2000/svg" width="960" height="720" viewBox="0 0 960 720"><defs><radialGradient id="g" cx="50%" cy="55%" r="65%"><stop offset="0" stop-color="#5b3924"/><stop offset=".55" stop-color="#2a1b15"/><stop offset="1" stop-color="#070507"/></radialGradient></defs><rect width="960" height="720" fill="#050507"/><ellipse cx="480" cy="365" rx="360" ry="330" fill="url(#g)"/><ellipse cx="480" cy="365" rx="330" ry="305" fill="none" stroke="#8c6038" stroke-width="18" opacity=".35"/><path d="M690 145c-165 20-294 95-332 197-47 126 33 215 194 198" fill="none" stroke="#c58a49" stroke-width="18" opacity=".75"/><path d="M690 145c-165 20-294 95-332 197-47 126 33 215 194 198" fill="none" stroke="#342015" stroke-width="7"/><g fill="#bd8144"><rect x="660" y="138" width="80" height="12"/><rect x="600" y="168" width="82" height="12"/><rect x="548" y="207" width="88" height="12"/><rect x="500" y="257" width="92" height="12"/><rect x="464" y="314" width="96" height="12"/><rect x="450" y="374" width="98" height="12"/><rect x="468" y="435" width="96" height="12"/><rect x="510" y="492" width="98" height="12"/></g><rect x="190" y="105" width="580" height="510" rx="26" fill="none" stroke="#3a261a" stroke-width="26"/><rect x="250" y="135" width="460" height="18" fill="#7b4a2a"/><rect x="250" y="548" width="460" height="24" fill="#7b4a2a"/><rect x="395" y="502" width="170" height="62" fill="#130d0a" stroke="#d09750" stroke-width="5"/><g fill="#8a542f"><rect x="446" y="565" width="12" height="115"/><rect x="502" y="565" width="12" height="115"/><rect x="446" y="586" width="68" height="8"/><rect x="446" y="620" width="68" height="8"/><rect x="446" y="654" width="68" height="8"/></g><circle cx="480" cy="112" r="38" fill="#5fb6ff" opacity=".55"/></svg>