<svg xmlns="http://www.w3.org/2000/svg" width="9600" height="760" viewBox="0 0 9600 760"><defs><linearGradient id="stone" x1="0" y1="0" x2="0" y2="1"><stop stop-color="#05070d"/><stop offset=".55" stop-color="#11151b"/><stop offset="1" stop-color="#211714"/></linearGradient><linearGradient id="water" x1="0" y1="0" x2="0" y2="1"><stop stop-color="#1fcfff" stop-opacity=".75"/><stop offset="1" stop-color="#04131f"/></linearGradient><radialGradient id="blue" cx="50%" cy="45%" r="55%"><stop stop-color="#44e8ff" stop-opacity=".9"/><stop offset="1" stop-color="#05070d" stop-opacity="0"/></radialGradient><radialGradient id="purple" cx="50%" cy="50%" r="55%"><stop stop-color="#a65cff" stop-opacity=".9"/><stop offset="1" stop-color="#05070d" stop-opacity="0"/></radialGradient><radialGradient id="gold" cx="50%" cy="50%" r="55%"><stop stop-color="#ffd078" stop-opacity=".85"/><stop offset="1" stop-color="#05070d" stop-opacity="0"/></radialGradient><radialGradient id="green" cx="50%" cy="50%" r="55%"><stop stop-color="#62ffac" stop-opacity=".8"/><stop offset="1" stop-color="#05070d" stop-opacity="0"/></radialGradient></defs><rect width="9600" height="760" fill="url(#stone)"/><path d="M0 0H9600V116c-160 20-280 55-470 26-270-40-350 50-610 22-220-24-360-80-610-28-250 52-390 28-590-10-220-42-330 35-520 34-245-2-360-90-610-28-260 65-380 14-610-10-250-26-385 84-620 38-230-44-335-80-600-22-270 60-395-15-620-16-245-2-380 85-610 30-245-58-350-72-600-18-260 56-390 14-620-12-260-28-380 86-620 40-265-52-420-76-610-8-165 60-270 10-420-10z" fill="#1c1717"/><path d="M0 635H9600V760H0z" fill="#241b18"/><path d="M0 635c400-40 650 20 950 0s560-45 970 2 620-34 955-8 590 35 960-10 700 44 980 12 520-40 830-5 580 35 980-6 600 45 970 15 620-30 1010 0v125H0z" fill="#372820"/><g opacity=".55"><rect x="0" width="180" height="760" fill="#000"/><rect x="1180" width="120" height="760" fill="#000" opacity=".45"/><rect x="2380" width="120" height="760" fill="#000" opacity=".45"/><rect x="3580" width="120" height="760" fill="#000" opacity=".45"/><rect x="4780" width="120" height="760" fill="#000" opacity=".45"/><rect x="5980" width="120" height="760" fill="#000" opacity=".45"/><rect x="7180" width="120" height="760" fill="#000" opacity=".45"/><rect x="8380" width="120" height="760" fill="#000" opacity=".45"/><rect x="9420" width="180" height="760" fill="#000"/></g><g id="stal" fill="#7a5130" opacity=".9"><path d="M220 120l22 0-11 120z"/><path d="M350 125l30 0-15 170z"/><path d="M510 115l24 0-12 110z"/><path d="M700 130l32 0-16 185z"/><path d="M1080 120l26 0-13 145z"/><path d="M1390 105l42 0-21 215z"/><path d="M1810 120l34 0-17 190z"/><path d="M2980 110l44 0-22 240z"/><path d="M3280 110l30 0-15 175z"/><path d="M3900 130l26 0-13 150z"/><path d="M5200 110l40 0-20 220z"/><path d="M5550 105l48 0-24 250z"/><path d="M7480 118l38 0-19 230z"/><path d="M7800 108l34 0-17 210z"/><path d="M8500 120l36 0-18 220z"/></g><g opacity=".9"><rect x="210" y="405" width="12" height="230" fill="#7b4a2a"/><rect x="265" y="405" width="12" height="230" fill="#7b4a2a"/><g fill="#a56c38"><rect x="210" y="430" width="67" height="8"/><rect x="210" y="468" width="67" height="8"/><rect x="210" y="506" width="67" height="8"/><rect x="210" y="544" width="67" height="8"/><rect x="210" y="582" width="67" height="8"/></g></g><g transform="translate(580 0)"><ellipse cx="180" cy="350" rx="260" ry="175" fill="url(#blue)"/><g fill="#3af3ff"><circle cx="-10" cy="250" r="3"/><circle cx="35" cy="220" r="2"/><circle cx="86" cy="245" r="3"/><circle cx="144" cy="210" r="2"/><circle cx="190" cy="260" r="3"/><circle cx="245" cy="225" r="2"/><circle cx="315" cy="245" r="3"/><circle cx="390" cy="220" r="2"/><circle cx="140" cy="330" r="3"/><circle cx="260" cy="315" r="2"/></g><rect x="60" y="590" width="390" height="30" fill="#0e4355" opacity=".7"/></g><g transform="translate(1450 0)"><ellipse cx="500" cy="370" rx="520" ry="270" fill="url(#purple)"/><g fill="#8b5cff"><path d="M180 610l40-160 48 160z"/><path d="M260 610l32-120 38 120z"/><path d="M420 610l70-230 80 230z"/><path d="M620 610l60-190 74 190z"/><path d="M830 610l46-155 54 155z"/></g><g fill="#36e7ff"><path d="M345 620l35-150 45 150z"/><path d="M720 620l28-125 42 125z"/></g></g><g transform="translate(2850 0)"><ellipse cx="420" cy="380" rx="500" ry="260" fill="url(#gold)"/><g fill="#b9874e"><path d="M80 120l38 0-19 240z"/><path d="M210 115l30 0-15 190z"/><path d="M390 105l50 0-25 280z"/><path d="M560 120l36 0-18 210z"/><path d="M720 110l42 0-21 260z"/><path d="M180 635l60-190 60 190z"/><path d="M410 635l72-240 72 240z"/><path d="M690 635l48-165 48 165z"/></g></g><g transform="translate(3900 0)"><ellipse cx="520" cy="390" rx="520" ry="250" fill="url(#blue)"/><rect x="110" y="560" width="960" height="90" fill="url(#water)"/><rect x="470" y="210" width="80" height="360" fill="#6eeaff" opacity=".38"/><rect x="500" y="210" width="10" height="360" fill="#e7ffff" opacity=".45"/><g fill="#a7f7ff" opacity=".5"><rect x="160" y="590" width="110" height="3"/><rect x="340" y="610" width="150" height="3"/><rect x="600" y="585" width="125" height="3"/><rect x="815" y="615" width="160" height="3"/></g></g><g transform="translate(5100 0)"><ellipse cx="450" cy="380" rx="520" ry="260" fill="url(#purple)"/><g><ellipse cx="170" cy="570" rx="95" ry="120" fill="#24142d"/><ellipse cx="170" cy="570" rx="56" ry="78" fill="#a45cff" opacity=".9"/><ellipse cx="520" cy="555" rx="120" ry="95" fill="#17271f"/><ellipse cx="520" cy="555" rx="76" ry="55" fill="#55ffad" opacity=".75"/></g><g stroke-width="9" fill="none"><path d="M760 230c80 100 45 170 130 270" stroke="#d7a544"/><path d="M820 190c70 130 95 210 60 380" stroke="#ff8a3d"/><path d="M900 260c-50 90-10 180-80 280" stroke="#c7d7ff"/></g></g><g transform="translate(6300 0)"><ellipse cx="470" cy="380" rx="560" ry="260" fill="url(#green)"/><rect x="20" y="560" width="980" height="90" fill="#14391f" opacity=".8"/><g fill="#7bffba"><path d="M130 615c20-90 55-110 80 0z"/><path d="M720 615c30-100 75-120 110 0z"/></g><g fill="#ff8fcf"><circle cx="220" cy="585" r="7"/><circle cx="310" cy="560" r="6"/><circle cx="420" cy="600" r="8"/><circle cx="540" cy="570" r="7"/><circle cx="850" cy="585" r="6"/></g><rect x="480" y="260" width="60" height="340" fill="#70ffd0" opacity=".22"/></g><g transform="translate(7500 0)"><ellipse cx="470" cy="380" rx="560" ry="280" fill="url(#blue)"/><rect x="0" y="150" width="1100" height="500" fill="#65dfff" opacity=".12"/><g fill="#bff9ff"><path d="M90 620l45-180 50 180z"/><path d="M245 620l70-240 85 240z"/><path d="M520 620l80-300 90 300z"/><path d="M780 620l50-200 70 200z"/></g><g fill="#e9ffff" opacity=".7"><path d="M330 115l30 0-15 250z"/><path d="M610 115l36 0-18 270z"/></g></g><g transform="translate(8500 0)"><ellipse cx="500" cy="370" rx="650" ry="310" fill="url(#blue)"/><rect x="100" y="500" width="1040" height="210" fill="url(#water)"/><g fill="#a7f7ff" opacity=".55"><rect x="170" y="555" width="190" height="3"/><rect x="420" y="610" width="260" height="3"/><rect x="720" y="570" width="230" height="3"/></g><rect x="210" y="535" width="380" height="70" fill="#352923"/><rect x="250" y="520" width="315" height="20" fill="#5a4638"/><g fill="#3af3ff"><circle cx="710" cy="410" r="4"/><circle cx="790" cy="360" r="3"/><circle cx="940" cy="450" r="4"/></g><g fill="#37d8ff"><path d="M880 520l58-180 70 180z"/><path d="M1010 520l38-140 50 140z"/></g></g><rect width="9600" height="760" fill="none" stroke="#000" stroke-width="24" opacity=".35"/></svg>